<?xml version="1.0" encoding="utf-8" ?>
<svg baseProfile="full" height="200mm" version="1.1" viewBox="0,0,200,200" width="200mm" xmlns="http://www.w3.org/2000/svg" xmlns:ev="http://www.w3.org/2001/xml-events" xmlns:xlink="http://www.w3.org/1999/xlink"><defs /><rect fill="#1a1a1a" height="200" width="200" x="0" y="0" /><text alignment-baseline="middle" fill="#e1ed5e" style="dominant-baseline: central; font-size:9.0px; font-family:Arial;" text-anchor="middle" x="100.0" y="100.0">2025</text><line stroke="#e1ed5e" stroke-width="0.3" x1="100.0" x2="100.0" y1="15.0" y2="10.0" /><path d="M 100.0 14.0 a86.0,86.0 0 0,1 42.46469731375804,11.215312516191453" fill="none" id="id1" stroke="none" /><text fill="#e1ed5e" style="font-size:6.75px; font-family:Arial;" text-anchor="middle"><textPath startOffset="22.20632615414155" xlink:href="#id1">January</textPath></text><line stroke="#e1ed5e" stroke-width="0.3" x1="143.23703022742887" x2="145.7803849466894" y1="26.81831364943548" y2="22.513508569990506" /><path d="M 143.74570117128098 25.957352633546492 a86.0,86.0 0 0,1 28.547481713284135,27.462654790039103" fill="none" id="id2" stroke="none" /><text fill="#e1ed5e" style="font-size:6.75px; font-family:Arial;" text-anchor="middle"><textPath startOffset="19.985693538727396" xlink:href="#id2">February</textPath></text><line stroke="#e1ed5e" stroke-width="0.3" x1="172.23445277983987" x2="176.4835382374775" y1="55.19839476539836" y2="52.563006222186495" /><path d="M 173.08426987136738 54.67131705675599 a86.0,86.0 0 0,1 12.851231095245387,41.99856678651699" fill="none" id="id3" stroke="none" /><text fill="#e1ed5e" style="font-size:6.75px; font-family:Arial;" text-anchor="middle"><textPath startOffset="22.20632615414155" xlink:href="#id3">March</textPath></text><line stroke="#e1ed5e" stroke-width="0.3" x1="184.98032266829074" x2="189.97916517819016" y1="98.17113171792111" y2="98.06355123074" /><path d="M 185.9800911702706 98.14961562048488 a86.0,86.0 0 0,1 -9.607161424134198,41.387399972396054" fill="none" id="id4" stroke="none" /><text fill="#e1ed5e" style="font-size:6.75px; font-family:Arial;" text-anchor="middle"><textPath startOffset="21.466115282336823" xlink:href="#id4">April</textPath></text><line stroke="#e1ed5e" stroke-width="0.3" x1="174.80103733775053" x2="179.2010983576182" y1="140.37084112569926" y2="142.7455964860345" /><path d="M 175.68104954172406 140.8457921977663 a86.0,86.0 0 0,1 -30.038265399797805,32.042727171017184" fill="none" id="id5" stroke="none" /><text fill="#e1ed5e" style="font-size:6.75px; font-family:Arial;" text-anchor="middle"><textPath startOffset="22.206326154141568" xlink:href="#id5">May</textPath></text><line stroke="#e1ed5e" stroke-width="0.3" x1="143.8653032363475" x2="146.44561519142675" y1="172.8068346515853" y2="177.08958963109032" /><path d="M 144.38136562736335 173.6633856474863 a86.0,86.0 0 0,1 -40.68145358897372,12.25698825130547" fill="none" id="id6" stroke="none" /><text fill="#e1ed5e" style="font-size:6.75px; font-family:Arial;" text-anchor="middle"><textPath startOffset="21.466115282336833" xlink:href="#id6">June</textPath></text><path d="M 110.5260780823613 118.17145234162733 l 17.571763141345777 30.334608387181905 a56.056459118103255,56.056459118103255 0 0,0 -0.8391150974193882,0.4764714518735364 l -17.04699927700519 -30.63258300485007" fill="red" stroke="none" /><path d="M 110.21172684928248 118.3499491758327 l 23.050490009670003 41.42054780726959 a68.4023930866386,68.4023930866386 0 0,0 -1.0337790085377496,0.5636987412212218 l -22.334088189263603 -41.811187200250586" fill="red" stroke="none" /><path d="M 109.89434966115114 118.52300852407294 l 22.399422029259682 41.93349733852166 a68.54105916241967,68.54105916241967 0 0,0 -1.045444038104415,0.5469269099995814 l -21.674287088628773 -42.31285366746596" fill="red" stroke="none" /><path d="M 109.2508944713604 118.85261126421891 l 20.904602702820206 42.60197212381061 a68.454509195657,68.454509195657 0 0,0 -1.0623074935774377,0.5099721532372419 l -20.168182541242537 -42.955498553547415" fill="red" stroke="none" /><path d="M 108.59647513512805 119.15986991738527 l 19.423119356940763 43.290352664213195 a68.44799468202969,68.44799468202969 0 0,0 -1.0791293285883832,0.4730585849654847 l -18.675069353694628 -43.61827580247313" fill="red" stroke="none" /><path d="M 107.93186726928326 119.44442032107085 l 17.900394807045462 43.88157147929145 a68.3921559937957,68.3921559937957 0 0,0 -1.0938801791606154,0.4352774984020564 l -17.14239355184298 -44.18319582209958" fill="red" stroke="none" /><path d="M 107.59598834532513 119.57807347666477 l 9.78305399033188 25.215066314151635 a48.04639929093729,48.04639929093729 0 0,0 -0.7736151612146817,0.29251505835342195 l -9.347568608356923 -25.379729622611688" fill="red" stroke="none" /><path d="M 107.2578585660854 119.70592522655815 l 21.77357569825621 59.11777567967444 a84.0,84.0 0 0,0 -1.3611217574810608,0.4880498358401595 l -20.752734380145416 -59.48381305655456" fill="red" stroke="none" /><path d="M 105.53697534728816 120.25689768951611 l 12.487333278240383 45.68462324039329 a68.3605140704631,68.3605140704631 0 0,0 -1.1377453810450455,0.30048889594084816 l -11.69909745438384 -45.89280348563773" fill="red" stroke="none" /><path d="M 105.18746579009965 120.34920634021253 l 11.668292206616355 45.7719617550998 a68.23580766674053,68.23580766674053 0 0,0 -1.1406645783001559,0.2803476011148686 l -10.878674343572989 -45.9660306145287" fill="red" stroke="none" /><path d="M 104.13013068566511 120.58985236759428 l 9.344180446025923 46.5833433667371 a68.51127852869487,68.51127852869487 0 0,0 -1.1582725068945197,0.2219856826581352 l -8.540940324559699 -46.737286247743704" fill="red" stroke="none" /><path d="M 103.7750983002368 120.6578951692458 l 8.548134174633272 46.77665205728404 a68.55129625526257,68.55129625526257 0 0,0 -1.1626006984874273,0.2021330337311183 l -7.741684504673795 -46.91686366953616" fill="red" stroke="none" /><path d="M 103.41894727170886 120.7198165907248 l 7.7354723691479785 46.8792163183188 a68.51313981830268,68.51313981830268 0 0,0 -1.16525887688919,0.18198947181092046 l -6.927377628650271 -47.005424097476826" fill="red" stroke="none" /><path d="M 103.06178313531738 120.77559828337769 l 6.911773593172253 46.89954358329166 a68.4061156658542,68.4061156658542 0 0,0 -1.1663940099004306,0.16165158156577622 l -6.103450992084992 -47.01156973035004" fill="red" stroke="none" /><path d="M 102.34483914955558 120.86867818915974 l 5.277316916028386 46.967242270617206 a68.26279636605362,68.26279636605362 0 0,0 -1.168813163703924,0.1211522634066085 l -4.46807115571886 -47.051123902479574" fill="red" stroke="none" /><path d="M 101.98527174616119 120.90594882070398 l 4.479860493808184 47.17527179266236 a68.3875027697762,68.3875027697762 0 0,0 -1.1728641770476647,0.10119965635075108 l -3.6671519990189783 -47.24539570129177" fill="red" stroke="none" /><path d="M 101.62511606390274 120.93702456842531 l 3.6623987235827897 47.18415734004576 a68.32608021271881,68.32608021271881 0 0,0 -1.1733775683196317,0.0809229870287337 l -2.8496583944842273 -47.24020867159078" fill="red" stroke="none" /><path d="M 100.90346689309514 120.98055641714683 l 2.046283446590141 47.519356408931536 a68.56339463771327,68.56339463771327 0 0,0 -1.1795504334621467,0.040626101908016514 l -1.2280126614533422 -47.54753930926565" fill="red" stroke="none" /><line stroke="#e1ed5e" stroke-width="0.3" x1="102.19456741930631" x2="102.32365962044197" y1="184.97166512339345" y2="189.96999836594603" /><path d="M 102.22038585953345 185.97133177190398 a86.0,86.0 0 0,1 -42.740103519485714,-10.115201625700543" fill="none" id="id7" stroke="none" /><text fill="#e1ed5e" style="font-size:6.75px; font-family:Arial;" text-anchor="middle"><textPath startOffset="22.20632615414155" xlink:href="#id7">July</textPath></text><path d="M 100.54218724476979 120.99299961872073 l 1.2279165502643734 47.54381797097737 a68.55967205849767,68.55967205849767 0 0,0 -1.1800109109371613,0.02031495795796973 l -0.4093459494345442 -47.5579104062145" fill="red" stroke="none" /><path d="M 99.81925306533755 120.99922214144158 l -0.40847285322896276 47.45647388002717 a68.45823177487259,68.45823177487259 0 0,0 -1.1782649772433125,-0.020284900126080894 l 1.225297520364943 -47.44241150262193" fill="red" stroke="none" /><path d="M 99.45781275523022 120.99299961872073 l -1.220996544658593 47.27588161422171 a68.29164635497452,68.29164635497452 0 0,0 -1.1748753323183256,-0.04046508197185074 l 2.0345922286515616 -47.247859733823766" fill="red" stroke="none" /><path d="M 98.73552117531835 120.96189622390904 l -2.8548698516388775 47.32660159642233 a68.41263017948151,68.41263017948151 0 0,0 -1.1748639083704886,-0.08102549374089793 l 3.669096520788296 -47.27044775816515" fill="red" stroke="none" /><path d="M 98.37488393609728 120.93702456842531 l -3.6626868008819207 47.18786875587885 a68.32980279193441,68.32980279193441 0 0,0 -1.1718746068150023,-0.10111427206718258 l 4.474405725438465 -47.117830231533006" fill="red" stroke="none" /><path d="M 97.65516085044442 120.86867818915974 l -5.289059296879241 47.07174750595402 a68.3679592288943,68.3679592288943 0 0,0 -1.1683517004376593,-0.1414711200199298 l 6.09853842036829 -46.97373085720874" fill="red" stroke="none" /><path d="M 96.93821686468263 120.77559828337769 l -6.952751147210148 47.177595020543166 a68.68717039663196,68.68717039663196 0 0,0 -1.1682187569470324,-0.18245174420294757 l 7.763805767765698 -47.050924968993115" fill="red" stroke="none" /><path d="M 95.16358092515715 120.4354850818985 l -10.962692791494002 46.32103660398602 a68.60062042986927,68.60062042986927 0 0,0 -1.146762974594448,-0.28184643855076047 l 11.758409050831661 -46.12546890712123" fill="red" stroke="none" /><path d="M 94.46302465271185 120.25689768951611 l -12.5518679344042 45.920721804201975 a68.60527365388876,68.60527365388876 0 0,0 -1.1364588765638852,-0.3211746302978454 l 13.3404579790727 -45.69785838056561" fill="red" stroke="none" /><line stroke="#e1ed5e" stroke-width="0.3" x1="58.666819895761336" x2="56.23545636021788" y1="174.27360380694188" y2="178.64263932499728" /><path d="M 58.180547188652646 175.14741091055294 a86.0,86.0 0 0,1 -31.652253787137756,-30.449443065178592" fill="none" id="id8" stroke="none" /><text fill="#e1ed5e" style="font-size:6.75px; font-family:Arial;" text-anchor="middle"><textPath startOffset="22.20632615414155" xlink:href="#id8">August</textPath></text><line stroke="#e1ed5e" stroke-width="0.3" x1="26.63291911575756" x2="22.317208475507996" y1="142.92168965132927" y2="145.44649492493687" /><path d="M 25.769776987707644 143.4266507060508 a86.0,86.0 0 0,1 -11.730757126820373,-40.83630448921669" fill="none" id="id9" stroke="none" /><text fill="#e1ed5e" style="font-size:6.75px; font-family:Arial;" text-anchor="middle"><textPath startOffset="21.46611528233685" xlink:href="#id9">September</textPath></text><line stroke="#e1ed5e" stroke-width="0.3" x1="15.007084014347285" x2="10.007500721073583" y1="101.09737516637583" y2="101.16192664675087" /><path d="M 14.007167355692545 101.11028546245083 a86.0,86.0 0 0,1 10.666146001902534,-42.60595125391555" fill="none" id="id10" stroke="none" /><text fill="#e1ed5e" style="font-size:6.75px; font-family:Arial;" text-anchor="middle"><textPath startOffset="22.20632615414155" xlink:href="#id10">October</textPath></text><line stroke="#e1ed5e" stroke-width="0.3" x1="26.266209847984243" x2="21.928928074336255" y1="57.711370442889674" y2="55.22380399835377" /><path d="M 25.398753493254645 57.213857153982495 a86.0,86.0 0 0,1 29.58750427330803,-30.492523968695096" fill="none" id="id11" stroke="none" /><text fill="#e1ed5e" style="font-size:6.75px; font-family:Arial;" text-anchor="middle"><textPath startOffset="21.46611528233685" xlink:href="#id11">November</textPath></text><line stroke="#e1ed5e" stroke-width="0.3" x1="56.762969772571076" x2="54.21961505331055" y1="26.818313649435495" y2="22.513508569990535" /><path d="M 56.25429882871897 25.957352633546506 a86.0,86.0 0 0,1 42.265352541879196,-11.944610805530505" fill="none" id="id12" stroke="none" /><text fill="#e1ed5e" style="font-size:6.75px; font-family:Arial;" text-anchor="middle"><textPath startOffset="22.20632615414155" xlink:href="#id12">December</textPath></text></svg>