<?xml version="1.0" encoding="utf-8" ?>
<svg baseProfile="full" height="200mm" version="1.1" viewBox="0,0,200,200" width="200mm" xmlns="http://www.w3.org/2000/svg" xmlns:ev="http://www.w3.org/2001/xml-events" xmlns:xlink="http://www.w3.org/1999/xlink"><defs /><rect fill="#1a1a1a" height="200" width="200" x="0" y="0" /><text alignment-baseline="middle" fill="#e1ed5e" style="dominant-baseline: central; font-size:9.0px; font-family:Arial;" text-anchor="middle" x="100.0" y="100.0">2025</text><line stroke="#e1ed5e" stroke-width="0.3" x1="100.0" x2="100.0" y1="15.0" y2="10.0" /><path d="M 100.0 14.0 a86.0,86.0 0 0,1 42.46469731375804,11.215312516191453" fill="none" id="id1" stroke="none" /><text fill="#e1ed5e" style="font-size:6.75px; font-family:Arial;" text-anchor="middle"><textPath startOffset="22.20632615414155" xlink:href="#id1">January</textPath></text><line stroke="#e1ed5e" stroke-width="0.3" x1="143.23703022742887" x2="145.7803849466894" y1="26.81831364943548" y2="22.513508569990506" /><path d="M 143.74570117128098 25.957352633546492 a86.0,86.0 0 0,1 28.547481713284135,27.462654790039103" fill="none" id="id2" stroke="none" /><text fill="#e1ed5e" style="font-size:6.75px; font-family:Arial;" text-anchor="middle"><textPath startOffset="19.985693538727396" xlink:href="#id2">February</textPath></text><line stroke="#e1ed5e" stroke-width="0.3" x1="172.23445277983987" x2="176.4835382374775" y1="55.19839476539836" y2="52.563006222186495" /><path d="M 173.08426987136738 54.67131705675599 a86.0,86.0 0 0,1 12.851231095245387,41.99856678651699" fill="none" id="id3" stroke="none" /><text fill="#e1ed5e" style="font-size:6.75px; font-family:Arial;" text-anchor="middle"><textPath startOffset="22.20632615414155" xlink:href="#id3">March</textPath></text><line stroke="#e1ed5e" stroke-width="0.3" x1="184.98032266829074" x2="189.97916517819016" y1="98.17113171792111" y2="98.06355123074" /><path d="M 185.9800911702706 98.14961562048488 a86.0,86.0 0 0,1 -9.607161424134198,41.387399972396054" fill="none" id="id4" stroke="none" /><text fill="#e1ed5e" style="font-size:6.75px; font-family:Arial;" text-anchor="middle"><textPath startOffset="21.466115282336823" xlink:href="#id4">April</textPath></text><line stroke="#e1ed5e" stroke-width="0.3" x1="174.80103733775053" x2="179.2010983576182" y1="140.37084112569926" y2="142.7455964860345" /><path d="M 175.68104954172406 140.8457921977663 a86.0,86.0 0 0,1 -30.038265399797805,32.042727171017184" fill="none" id="id5" stroke="none" /><text fill="#e1ed5e" style="font-size:6.75px; font-family:Arial;" text-anchor="middle"><textPath startOffset="22.206326154141568" xlink:href="#id5">May</textPath></text><line stroke="#e1ed5e" stroke-width="0.3" x1="143.8653032363475" x2="146.44561519142675" y1="172.8068346515853" y2="177.08958963109032" /><path d="M 144.38136562736335 173.6633856474863 a86.0,86.0 0 0,1 -40.68145358897372,12.25698825130547" fill="none" id="id6" stroke="none" /><text fill="#e1ed5e" style="font-size:6.75px; font-family:Arial;" text-anchor="middle"><textPath startOffset="21.466115282336833" xlink:href="#id6">June</textPath></text><path d="M 110.5260780823613 118.17145234162733 l 9.57977374449064 16.537821653944427 a40.112080212611744,40.112080212611744 0 0,0 -0.6004419941042987,0.340946634825863 l -9.29368298346514 -16.700271454564916" fill="red" stroke="none" /><path d="M 110.21172684928248 118.3499491758327 l 12.566666032089964 22.581654053419626 a46.842836433921235,46.842836433921235 0 0,0 -0.707945129118797,0.38602813061800406 l -12.176098091102519 -22.7946228357974" fill="red" stroke="none" /><path d="M 109.89434966115114 118.52300852407294 l 12.211716793675881 22.861303876389012 a46.91843440444551,46.91843440444551 0 0,0 -0.7156381609027505,0.3743880626360536 l -11.816387730246635 -23.068121357969783" fill="red" stroke="none" /><path d="M 109.2508944713604 118.85261126421891 l 11.396771200510704 23.225742956602723 a46.87124909398406,46.87124909398406 0 0,0 -0.7273688721302369,0.34918126075607986 l -10.995289660380235 -23.418478493858363" fill="red" stroke="none" /><path d="M 108.59647513512805 119.15986991738527 l 10.589096117162798 23.60103425629308 a46.867697511476194,46.867697511476194 0 0,0 -0.7389012224973338,0.3239125816375466 l -10.181274220007712 -23.779811391225078" fill="red" stroke="none" /><path d="M 107.93186726928326 119.44442032107085 l 9.758937154408814 23.92335492704063 a46.83725537569461,46.83725537569461 0 0,0 -0.7491260446066962,0.29809271334859033 l -9.345690033760253 -24.08779448479529" fill="red" stroke="none" /><path d="M 107.59598834532513 119.57807347666477 l 5.333525327176585 13.746749731307844 a35.74515583474269,35.74515583474269 0 0,0 -0.5755476976805296,0.21762289160395362 l -5.096107408735781 -13.83652087301843" fill="red" stroke="none" /><path d="M 107.2578585660854 119.70592522655815 l 11.870517893963552 32.22982865938279 a55.34633969557864,55.34633969557864 0 0,0 -0.8968227042451167,0.3215687143188197 l -11.3139756290887 -32.42938491474157" fill="red" stroke="none" /><path d="M 105.53697534728816 120.25689768951611 l 6.807844296291238 24.90634267744564 a46.82000483208505,46.82000483208505 0 0,0 -0.7792399598297902,0.2058043557928309 l -6.37811389364995 -25.019838382542055" fill="red" stroke="none" /><path d="M 105.18746579009965 120.34920634021253 l 6.361319488820926 24.953957888471304 a46.752017395506165,46.752017395506165 0 0,0 -0.7815305780152711,0.19208120153165975 l -5.930835626062444 -25.059760348316992" fill="red" stroke="none" /><path d="M 104.13013068566511 120.58985236759428 l 5.094260250412539 25.396306911583057 a46.902198598695335,46.902198598695335 0 0,0 -0.7929428309679271,0.15196938077484679 l -4.6563498048729075 -25.48023349070637" fill="red" stroke="none" /><path d="M 103.7750983002368 120.6578951692458 l 4.660271748021257 25.501694942561354 a46.924015462672145,46.924015462672145 0 0,0 -0.7958112556996246,0.13836198756909263 l -4.220611520849583 -25.578135508651453" fill="red" stroke="none" /><path d="M 103.41894727170886 120.7198165907248 l 4.217224788833635 25.557610925896682 a46.90321333655472,46.90321333655472 0 0,0 -0.7977212231112404,0.12458764908442026 l -3.776667702113877 -25.62641688232821" fill="red" stroke="none" /><path d="M 103.06178313531738 120.77559828337769 l 3.7681606941273706 25.56869294411636 a46.844865909640006,46.844865909640006 0 0,0 -0.7987527205680388,0.1106998488193645 l -3.327479382372501 -25.629767358428328" fill="red" stroke="none" /><path d="M 102.34483914955558 120.86867818915974 l 2.8770876107799115 25.60560091414538 a46.76673109446726,46.76673109446726 0 0,0 -0.8007520030896007,0.08300121919764361 l -2.435903011084708 -25.651331501798783" fill="red" stroke="none" /><path d="M 101.98527174616119 120.90594882070398 l 2.4423303223672788 25.719014447968732 a46.83471853104614,46.83471853104614 0 0,0 -0.8032280955205612,0.06930589988907608 l -1.9992579091051756 -25.75724460013647" fill="red" stroke="none" /><path d="M 101.62511606390274 120.93702456842531 l 1.9966665184258436 25.72385867064829 a46.8012321816864,46.8012321816864 0 0,0 -0.8037270079117934,0.05542972014458343 l -1.5535767497351198 -25.75441673530916" fill="red" stroke="none" /><path d="M 100.90346689309514 120.98055641714683 l 1.1155927995241977 25.906602497403725 a46.930611258758155,46.930611258758155 0 0,0 -0.8073845110122738,0.027807955041874294 l -0.6694879368372716 -25.921967250871695" fill="red" stroke="none" /><line stroke="#e1ed5e" stroke-width="0.3" x1="102.19456741930631" x2="102.32365962044197" y1="184.97166512339345" y2="189.96999836594603" /><path d="M 102.22038585953345 185.97133177190398 a86.0,86.0 0 0,1 -42.740103519485714,-10.115201625700543" fill="none" id="id7" stroke="none" /><text fill="#e1ed5e" style="font-size:6.75px; font-family:Arial;" text-anchor="middle"><textPath startOffset="22.20632615414155" xlink:href="#id7">July</textPath></text><path d="M 100.54218724476979 120.99299961872073 l 0.6694355389397338 25.91993845168167 a46.92858178303938,46.92858178303938 0 0,0 -0.8077086263123355,0.013905436495322695 l -0.22316722273473036 -25.92762136545615" fill="red" stroke="none" /><path d="M 99.81925306533755 120.99922214144158 l -0.22269122814959036 25.872320200599496 a46.873278569702826,46.873278569702826 0 0,0 -0.8067567781895596,-0.013889049566678783 l 0.6680076962318179 -25.864653673753658" fill="red" stroke="none" /><path d="M 99.45781275523022 120.99299961872073 l -0.6656628903170128 25.773864910000317 a46.782459531287756,46.782459531287756 0 0,0 -0.8048357393932802,-0.027720170193853505 l 1.109218981384936 -25.75858794138037" fill="red" stroke="none" /><path d="M 98.73552117531835 120.96189622390904 l -1.5564179319215092 25.801516429651357 a46.84841749214787,46.84841749214787 0 0,0 -0.8045373307735375,-0.055485604753425795 l 2.0003180234739766 -25.770902480381647" fill="red" stroke="none" /><path d="M 98.37488393609728 120.93702456842531 l -1.9968235724063916 25.72588206031424 a46.80326165740517,46.80326165740517 0 0,0 -0.8026886016259002,-0.0692593500857728 l 2.4393564917738333 -25.687698457949804" fill="red" stroke="none" /><path d="M 97.65516085044442 120.86867818915974 l -2.88348932191544 25.662575077841325 a46.82406378352259,46.82406378352259 0 0,0 -0.8001844015808983,-0.0968911873639775 l 3.324801146547728 -25.609138361752" fill="red" stroke="none" /><path d="M 96.93821686468263 120.77559828337769 l -3.790500836839744 25.720281025333573 a46.99809132640735,46.99809132640735 0 0,0 -0.7993348905068725,-0.12483967074487186 l 4.232671590955134 -25.651223047241594" fill="red" stroke="none" /><path d="M 95.16358092515715 120.4354850818985 l -5.976640803094036 25.253302511933914 a46.95090601594588,46.95090601594588 0 0,0 -0.7848553016775256,-0.19289833771771678 l 6.410449389514773 -25.14668291590217" fill="red" stroke="none" /><path d="M 94.46302465271185 120.25689768951611 l -6.84302729982679 25.03505889132201 a46.95344286059435,46.95344286059435 0 0,0 -0.7777923486372244,-0.21981188688265807 l 7.2729508165686285 -24.913558211100828" fill="red" stroke="none" /><path d="M 93.76903079525671 120.05430185196036 l -18.692907614229874 60.16290555588108 a84.0,84.0 0 0,0 -1.3771146196362385,-0.4409086133611737 l 19.725743578957054 -59.832224095860205" fill="red" stroke="none" /><path d="M 93.08242187328487 119.8279376855182 l -8.547780036547918 24.500605097563234 a46.948876540227104,46.948876540227104 0 0,0 -0.7607516350975809,-0.2727784700992642 l 8.968251232275225 -24.349839086424012" fill="red" stroke="none" /><path d="M 91.7346041902142 119.30500536409082 l -10.2058367637285 23.83718069926527 a46.93010388982846,46.93010388982846 0 0,0 -0.739885101623163,-0.3243438853327628 l 10.614642540009406 -23.657972260638054" fill="red" stroke="none" /><path d="M 90.7491055286396 118.85261126421891 l -11.417110205026127 23.26719228313192 a46.91741966658613,46.91741966658613 0 0,0 -0.7219609917554909,-0.36200622893053913 l 11.815925104464378 -23.06721821329208" fill="red" stroke="none" /><line stroke="#e1ed5e" stroke-width="0.3" x1="58.666819895761336" x2="56.23545636021788" y1="174.27360380694188" y2="178.64263932499728" /><path d="M 58.180547188652646 175.14741091055294 a86.0,86.0 0 0,1 -31.652253787137756,-30.449443065178592" fill="none" id="id8" stroke="none" /><text fill="#e1ed5e" style="font-size:6.75px; font-family:Arial;" text-anchor="middle"><textPath startOffset="22.20632615414155" xlink:href="#id8">August</textPath></text><path d="M 88.54995079064634 117.60387380957326 l -14.164145193721128 21.776659650252732 a46.97779656921962,46.97779656921962 0 0,0 -0.6740761287501377,-0.4467409018877443 l 14.536896021211227 -21.52962072727367" fill="red" stroke="none" /><path d="M 88.24862548938628 117.40417183066458 l -14.60503639044407 21.63053885337562 a47.099565112345985,47.099565112345985 0 0,0 -0.6680133907603885,-0.4594657014362962 l 14.975206665827349 -21.375932362574222" fill="red" stroke="none" /><path d="M 87.36589467227662 116.77436683061367 l -15.612079030967372 20.728237881579286 a46.9498912780865,46.9498912780865 0 0,0 -0.6413607146684396,-0.4917680469838799 l 15.966568474129298 -20.45643049276804" fill="red" stroke="none" /><path d="M 87.07902340077011 116.55440617244103 l -15.960949300928375 20.449231185903965 a46.94075863735202,46.94075863735202 0 0,0 -0.632677619926926,-0.5026373651624383 l 16.31058441357266 -20.1714599067364" fill="red" stroke="none" /><path d="M 85.70375840098266 115.38237550388516 l -17.66426894456018 19.00628329654968 a46.947354433438036,46.947354433438036 0 0,0 -0.5872089371341705,-0.5552427017942083 l 17.98881371608517 -18.69940595800954" fill="red" stroke="none" /><path d="M 85.18274418774928 114.88116024355367 l -18.304090110663918 18.38303269516547 a46.941773375211405,46.941773375211405 0 0,0 -0.5676811154835,-0.5750579728656416 l 18.61781185120295 -18.06523422831916" fill="red" stroke="none" /><path d="M 84.9287848128048 114.62390073753433 l -18.65640930976403 18.10268611230512 a46.99555448175889,46.99555448175889 0 0,0 -0.5583372836910531,-0.5854144097470245 l 18.965253144834037 -17.778864585975594" fill="red" stroke="none" /><path d="M 83.95833913139862 113.55231037782056 l -19.95770197554385 16.860658869183187 a47.126455665619716,47.126455665619716 0 0,0 -0.5181755773348337,-0.6241758635961684 l 20.24497355277222 -16.514621748473257" fill="red" stroke="none" /><path d="M 83.50135304334701 112.99209946851258 l -20.460076129284488 16.11158447740551 a47.042232423290656,47.042232423290656 0 0,0 -0.495496243565478,-0.6404956883741831 l 20.734379190068033 -15.757010794918076" fill="red" stroke="none" /><line stroke="#e1ed5e" stroke-width="0.3" x1="26.63291911575756" x2="22.317208475507996" y1="142.92168965132927" y2="145.44649492493687" /><path d="M 25.769776987707644 143.4266507060508 a86.0,86.0 0 0,1 -11.730757126820373,-40.83630448921669" fill="none" id="id9" stroke="none" /><text fill="#e1ed5e" style="font-size:6.75px; font-family:Arial;" text-anchor="middle"><textPath startOffset="21.46611528233685" xlink:href="#id9">September</textPath></text><line stroke="#e1ed5e" stroke-width="0.3" x1="15.007084014347285" x2="10.007500721073583" y1="101.09737516637583" y2="101.16192664675087" /><path d="M 14.007167355692545 101.11028546245083 a86.0,86.0 0 0,1 10.666146001902534,-42.60595125391555" fill="none" id="id10" stroke="none" /><text fill="#e1ed5e" style="font-size:6.75px; font-family:Arial;" text-anchor="middle"><textPath startOffset="22.20632615414155" xlink:href="#id10">October</textPath></text><line stroke="#e1ed5e" stroke-width="0.3" x1="26.266209847984243" x2="21.928928074336255" y1="57.711370442889674" y2="55.22380399835377" /><path d="M 25.398753493254645 57.213857153982495 a86.0,86.0 0 0,1 29.58750427330803,-30.492523968695096" fill="none" id="id11" stroke="none" /><text fill="#e1ed5e" style="font-size:6.75px; font-family:Arial;" text-anchor="middle"><textPath startOffset="21.46611528233685" xlink:href="#id11">November</textPath></text><line stroke="#e1ed5e" stroke-width="0.3" x1="56.762969772571076" x2="54.21961505331055" y1="26.818313649435495" y2="22.513508569990535" /><path d="M 56.25429882871897 25.957352633546506 a86.0,86.0 0 0,1 42.265352541879196,-11.944610805530505" fill="none" id="id12" stroke="none" /><text fill="#e1ed5e" style="font-size:6.75px; font-family:Arial;" text-anchor="middle"><textPath startOffset="22.20632615414155" xlink:href="#id12">December</textPath></text></svg>